<?xml version="1.0" encoding="utf-8"?>
<!-- Generator: Adobe Illustrator 25.2.0, SVG Export Plug-In . SVG Version: 6.00 Build 0)  -->
<svg version="1.1" id="Layer_1" xmlns="http://www.w3.org/2000/svg" xmlns:xlink="http://www.w3.org/1999/xlink" x="0px" y="0px"
	 viewBox="0 0 160 160" style="enable-background:new 0 0 160 160;" xml:space="preserve">
<style type="text/css">
	.st0{fill:#7A963C;}
	.st1{fill:#84A33E;}
	.st2{enable-background:new    ;}
	.st3{clip-path:url(#SVGID_1_);}
	.st4{fill:#C1C2C4;}
	.st5{fill:#DFE0E2;}
	.st6{fill:#67822F;}
	.st7{fill:none;}
</style>
<polygon class="st0" points="43.05,66.06 6.25,51.09 43.47,35.61 80.27,50.59 "/>
<polygon class="st1" points="80.27,50.59 80.79,98.31 43.56,113.78 43.05,66.06 "/>
<g class="st2">
	<defs>
		<polygon id="SVGID_3_" class="st2" points="80.27,50.59 80.79,98.31 43.56,113.78 43.05,66.06 		"/>
	</defs>
	<clipPath id="SVGID_1_">
		<use xlink:href="#SVGID_3_"  style="overflow:visible;"/>
	</clipPath>
	<g class="st3">
		<path class="st4" d="M78.5,53.8l-9.68,19.96l2.41-1C77.92,68.47,78.47,54.54,78.5,53.8"/>
		<path class="st5" d="M78.5,53.8c-0.71,0.63-14.24,12.8-9.68,19.96L78.5,53.8"/>
		<path class="st5" d="M51.77,99.02c-0.88,0.37-1.73,0.69-2.29,0.8l-0.17-15.77c0.59-0.4,1.47-0.89,2.65-1.38
			c4.78-1.99,7.16,0.03,7.18,4.76C59.2,92.83,56.61,97.01,51.77,99.02 M51.83,80.67c-1.79,0.75-3.43,1.61-4.81,2.41l0.21,19.66
			c1.14-0.32,2.5-0.79,4.12-1.46c3.4-1.41,6.1-3.55,7.73-6.11c1.62-2.51,2.47-5.55,2.44-8.8c-0.03-3.24-0.97-5.18-2.56-6.16
			C57.42,79.21,55.09,79.31,51.83,80.67"/>
		<path class="st5" d="M67.42,86.07l1.67-6.49c0.32-1.35,0.59-2.68,0.84-3.99l0.05-0.02c0.27,1.06,0.53,2.14,0.94,3.28l1.79,5.02
			L67.42,86.07 M71.36,72.71l-0.12,0.05l-2.41,1l-0.2,0.08L62.88,96.3l2.34-0.97l1.75-7.04l6.23-2.59l1.94,5.5l2.41-1L71.36,72.71"
			/>
	</g>
</g>
<polygon class="st6" points="152.43,129.06 116.13,113.81 115.69,66.11 151.98,81.36 "/>
<polygon class="st7" points="116.48,113.81 80.18,100.43 79.74,58.58 116.03,71.96 "/>
<g>
	<path class="st5" d="M91.18,70.57c-3.37-1.25-5.57,0.35-5.54,3.6c0.03,2.95,1.79,5.37,4.63,7.61c2.35,1.96,3.28,3.41,3.3,5.36
		c0.02,2.1-1.3,3.07-3.58,2.23c-1.55-0.57-3.02-1.74-4.01-2.84l-0.54,2.05c0.93,1.08,2.76,2.35,4.42,2.96
		c4.08,1.51,6.03-0.55,6-3.78c-0.03-3.07-1.54-5.32-4.49-7.77c-2.39-1.99-3.45-3.34-3.48-5.3c-0.02-1.43,0.86-2.8,3.23-1.92
		c1.56,0.58,2.73,1.63,3.28,2.21L95,73C94.23,72.19,92.95,71.22,91.18,70.57"/>
	<path class="st5" d="M106.74,76.32c-5.36-1.98-8.98,1.09-8.92,7.64c0.07,6.84,3.78,11.92,8.65,13.72c2.11,0.78,3.74,0.89,4.56,0.69
		l-0.48-2.31c-0.89,0.2-2.28,0.02-3.63-0.48c-4.21-1.56-6.68-5.75-6.73-10.85c-0.06-5.49,2.6-7.63,6.66-6.13
		c1.44,0.53,2.64,1.35,3.49,2.16l0.52-2C110.26,78.18,108.9,77.12,106.74,76.32"/>
</g>
<polygon class="st0" points="116.03,66.11 79.74,50.85 117.46,35.61 153.75,50.87 "/>
</svg>
